<svg width="13" height="43" viewBox="0 0 13 43" fill="none" xmlns="http://www.w3.org/2000/svg">
<path d="M6.432 42.504C4.608 42.504 3.096 41.952 1.896 40.848C0.744 39.696 0.168 38.28 0.168 36.6C0.168 34.92 0.744 33.528 1.896 32.424C3.096 31.272 4.608 30.696 6.432 30.696C8.208 30.696 9.672 31.272 10.824 32.424C11.976 33.528 12.552 34.92 12.552 36.6C12.552 38.28 11.976 39.696 10.824 40.848C9.672 41.952 8.208 42.504 6.432 42.504ZM6.432 12.696C4.608 12.696 3.096 12.144 1.896 11.04C0.744 9.888 0.168 8.472 0.168 6.792C0.168 5.112 0.744 3.72 1.896 2.616C3.096 1.464 4.608 0.887997 6.432 0.887997C8.208 0.887997 9.672 1.464 10.824 2.616C11.976 3.72 12.552 5.112 12.552 6.792C12.552 8.472 11.976 9.888 10.824 11.04C9.672 12.144 8.208 12.696 6.432 12.696Z" fill="#162C4E"/>
</svg>
